<?xml version="1.0" standalone="no"?>
<!DOCTYPE svg PUBLIC "-//W3C//DTD SVG 20010904//EN"
 "http://www.w3.org/TR/2001/REC-SVG-20010904/DTD/svg10.dtd">
<svg version="1.0" xmlns="http://www.w3.org/2000/svg"
 width="1024.000000pt" height="1024.000000pt" viewBox="0 0 1024.000000 1024.000000"
 preserveAspectRatio="xMidYMid meet">
<metadata>
Created by potrace 1.14, written by Peter Selinger 2001-2017
</metadata>
<g transform="translate(0.000000,1024.000000) scale(0.100000,-0.100000)"
fill="#000000" stroke="none">
<path d="M0 5120 l0 -5120 5120 0 5120 0 0 5120 0 5120 -5120 0 -5120 0 0
-5120z m5535 3825 c272 -32 461 -74 720 -160 1188 -393 2108 -1289 2504 -2439
100 -290 154 -530 191 -856 47 -408 0 -930 -120 -1347 -208 -720 -580 -1305
-1150 -1807 -381 -336 -844 -601 -1341 -767 -429 -143 -751 -194 -1229 -193
-314 0 -437 10 -710 60 -401 73 -856 239 -1215 442 -404 228 -733 498 -1030
842 -383 445 -651 963 -795 1540 -77 308 -103 535 -104 890 0 403 45 695 170
1097 253 816 813 1570 1519 2042 255 171 621 357 888 451 346 121 680 195 997
220 150 12 552 4 705 -15z"/>
<path d="M4915 8829 c-406 -23 -870 -137 -1261 -309 -668 -295 -1153 -681
-1561 -1245 -323 -446 -536 -937 -643 -1476 -76 -382 -86 -760 -29 -1152 104
-728 419 -1384 932 -1945 601 -657 1525 -1106 2434 -1183 184 -15 634 -7 803
15 343 45 698 146 1054 300 553 239 1100 674 1482 1181 379 502 619 1116 688
1765 34 325 29 543 -20 860 -151 975 -670 1840 -1459 2431 -470 352 -1005 590
-1580 703 -172 34 -258 44 -455 56 -179 11 -192 11 -385 -1z m460 -109 c524
-37 1086 -223 1595 -526 408 -243 824 -627 1092 -1005 420 -593 652 -1271 674
-1969 19 -586 -149 -1250 -448 -1775 -251 -439 -623 -845 -1066 -1163 -510
-366 -1168 -608 -1805 -663 -1126 -97 -2317 382 -3062 1231 -483 549 -760
1173 -852 1910 -25 203 -23 585 6 795 73 545 259 1043 559 1500 329 502 727
883 1216 1165 548 316 1182 499 1771 513 99 2 117 1 320 -13z"/>
<path d="M4813 8585 c-734 -84 -1460 -396 -1978 -849 -331 -290 -612 -644
-822 -1036 -171 -318 -313 -746 -368 -1107 -92 -603 11 -1273 288 -1863 245
-524 685 -1036 1167 -1357 441 -293 931 -494 1422 -583 383 -69 902 -63 1268
16 475 102 906 283 1290 543 153 103 172 117 336 258 550 470 903 1034 1088
1733 160 606 138 1183 -69 1818 -168 518 -434 955 -825 1356 -304 312 -627
542 -1042 740 -342 164 -692 268 -1078 321 -162 22 -524 28 -677 10z m361
-175 c59 -29 91 -81 90 -147 -1 -120 -123 -188 -234 -131 -56 29 -82 73 -82
138 0 69 30 113 97 145 42 20 82 18 129 -5z m-438 -48 c19 -24 17 -46 -7 -76
-25 -32 -64 -34 -96 -4 -25 23 -29 48 -12 79 21 41 85 41 115 1z m846 11 c24
-21 23 -68 -2 -93 -41 -41 -110 -13 -110 45 0 18 7 41 16 49 20 21 73 20 96
-1z m-1214 -89 c44 -30 16 -104 -39 -104 -17 0 -59 44 -59 62 0 14 47 58 62
58 8 0 24 -7 36 -16z m1552 -4 c24 -24 25 -48 4 -78 -31 -44 -97 -19 -97 38 0
56 54 79 93 40z m-1783 -82 c23 -30 23 -49 -2 -74 -20 -20 -29 -23 -45 -14
-11 6 -24 20 -30 31 -23 43 48 95 77 57z m1419 -1 c0 -1 8 -13 17 -27 23 -33
21 -52 -8 -84 -41 -45 -106 -25 -121 36 -5 22 0 34 25 59 26 25 37 30 59 24
15 -4 27 -7 28 -8z m590 -12 c15 -23 15 -27 0 -51 -23 -34 -67 -30 -80 8 -8
22 -6 32 9 48 24 27 51 25 71 -5z m-1399 -7 c29 -27 29 -65 1 -95 -43 -46
-118 -15 -118 49 0 64 69 91 117 46z m-873 -64 c22 -22 20 -50 -6 -68 -12 -9
-26 -16 -30 -16 -13 0 -48 39 -48 54 0 20 28 46 50 46 10 0 26 -7 34 -16z
m2534 4 c33 -33 -17 -106 -57 -81 -20 13 -27 59 -10 79 14 17 51 18 67 2z
m-2009 -23 c16 -8 31 -24 34 -36 12 -46 -30 -97 -70 -82 -58 20 -71 77 -27
112 32 25 28 25 63 6z m1495 -17 c9 -12 16 -30 16 -39 0 -25 -31 -57 -62 -64
-53 -13 -90 64 -51 107 23 26 78 24 97 -4z m-2166 -55 c19 -26 14 -60 -10 -77
-30 -22 -54 -20 -79 5 -38 38 -1 106 51 94 14 -3 31 -13 38 -22z m2850 -1 c18
-23 15 -49 -8 -72 -24 -24 -47 -25 -72 -3 -24 21 -23 58 3 84 22 22 55 19 77
-9z m-3043 -152 c139 -135 -13 -358 -185 -270 -47 24 -90 92 -90 141 0 49 39
120 80 147 30 20 45 23 97 20 55 -3 67 -8 98 -38z m3336 17 c51 -34 79 -82 79
-134 0 -157 -167 -229 -276 -119 -64 63 -69 148 -14 218 46 59 150 76 211 35z
m-2833 -32 c31 -36 30 -94 -3 -129 -19 -21 -33 -26 -69 -26 -37 0 -48 5 -70
31 -37 44 -34 83 9 126 32 32 40 35 73 30 22 -4 46 -17 60 -32z m370 23 c20
-20 14 -34 -40 -90 -29 -29 -114 -119 -188 -200 l-135 -147 -123 -1 c-70 0
-132 -5 -144 -11 -33 -18 -70 7 -66 44 4 41 28 55 71 39 18 -7 77 -12 130 -12
l96 0 93 97 c197 206 236 249 247 271 13 24 40 29 59 10z m1475 -33 c19 -25
99 -112 177 -193 l143 -147 86 -4 c47 -2 109 2 139 9 48 11 55 10 67 -7 32
-41 -2 -96 -45 -73 -10 5 -76 10 -146 10 l-128 0 -65 68 c-36 37 -123 127
-193 199 -117 120 -141 156 -121 176 19 19 53 4 86 -38z m437 10 c36 -36 34
-99 -3 -131 -33 -28 -91 -32 -124 -9 -28 20 -46 75 -34 106 26 69 108 87 161
34z m-1070 -120 l0 -114 138 -3 137 -3 0 -140 0 -140 -131 4 -131 3 -6 -38
c-4 -22 -7 -51 -7 -66 l0 -28 -145 0 -145 0 0 65 0 65 -140 0 -140 0 0 140 0
141 138 -2 137 -1 3 116 3 116 144 0 145 0 0 -115z m-2219 -154 c16 -16 29
-40 29 -53 0 -17 63 -87 244 -266 l243 -243 60 6 c57 7 61 6 81 -20 27 -35 27
-45 1 -80 -23 -29 -16 -28 -140 -10 -45 7 -57 18 -310 271 -184 184 -270 264
-286 264 -28 0 -63 45 -63 82 0 39 40 78 80 78 21 0 41 -9 61 -29z m4267 -3
c15 -15 22 -33 22 -58 0 -43 -21 -67 -68 -76 -25 -5 -89 -65 -290 -269 l-257
-262 -76 -7 c-87 -8 -101 -4 -119 29 -10 19 -10 30 0 54 15 38 35 44 106 35
l56 -6 236 236 c206 205 239 242 252 283 23 74 83 92 138 41z m-2892 -141 c54
-47 25 -127 -47 -127 -72 0 -103 86 -48 133 29 24 63 21 95 -6z m1492 7 c52
-36 44 -106 -15 -130 -36 -15 -44 -13 -80 19 -31 27 -30 71 2 102 28 29 61 32
93 9z m-3072 -145 c53 -25 84 -73 84 -126 0 -38 7 -47 183 -221 l182 -182 232
0 c219 0 233 -1 243 -19 14 -27 13 -67 -2 -78 -7 -5 -124 -9 -260 -8 l-248 0
-189 189 c-186 185 -189 188 -212 173 -97 -62 -230 10 -231 126 -1 60 27 113
76 142 50 30 86 31 142 4z m4691 5 c110 -53 122 -219 21 -279 -42 -24 -116
-25 -153 -1 l-28 18 -186 -185 -186 -185 -247 -7 c-135 -4 -255 -4 -267 0 -23
7 -29 52 -11 86 10 18 24 19 248 19 l237 0 177 177 c159 158 178 181 178 211
0 40 21 91 46 114 55 48 112 59 171 32z m-3827 -56 c13 -25 13 -31 0 -55 -22
-39 -76 -44 -102 -11 -22 29 -22 47 -2 76 23 34 83 27 104 -10z m2932 15 c41
-37 10 -103 -48 -103 -37 0 -54 21 -54 64 0 50 63 75 102 39z m-2794 -5 c8 -8
42 -13 91 -13 117 0 111 12 111 -244 l-1 -216 -127 -131 -127 -132 -273 -4
-273 -3 -5 22 c-12 47 -13 47 262 44 l259 -2 108 108 107 108 0 199 0 199 -93
-6 c-100 -7 -117 -1 -117 38 0 40 50 61 78 33z m2607 2 c22 -8 26 -15 23 -42
l-3 -33 -100 0 -100 0 -2 -190 -3 -190 108 -112 108 -113 89 -2 c125 -3 343 2
387 8 34 5 39 3 48 -22 7 -18 7 -31 1 -37 -7 -7 -112 -10 -281 -9 l-271 2 -28
27 c-16 16 -73 75 -128 133 l-100 105 2 130 c1 72 3 171 4 222 l1 91 36 12
c21 7 56 10 87 6 39 -5 57 -3 72 8 24 19 19 18 50 6z m-1052 -139 c25 -20 22
-57 -5 -65 -13 -3 -146 -6 -295 -6 l-273 0 0 27 c0 57 4 58 293 58 209 0 267
-3 280 -14z m-2932 -101 c32 -17 25 -66 -11 -85 -42 -22 -70 -6 -70 38 0 52
34 72 81 47z m5383 -12 c20 -28 20 -43 0 -62 -32 -32 -94 -14 -94 27 0 56 63
79 94 35z m-1965 -84 c49 -41 43 -75 -25 -137 -140 -128 -252 -339 -299 -562
-8 -38 -15 -80 -15 -92 l0 -23 -423 0 -423 0 -17 93 c-41 231 -139 426 -292
577 -76 76 -83 103 -34 144 l31 26 733 0 733 0 31 -26z m-3429 -74 c51 -51 -6
-130 -75 -104 -24 10 -44 55 -34 81 16 44 75 57 109 23z m5428 4 c44 -30 15
-114 -40 -114 -31 0 -68 38 -68 71 0 31 31 59 65 59 11 0 31 -7 43 -16z
m-5294 -9 c12 -9 42 -15 73 -15 74 0 125 -22 121 -52 -3 -25 3 -25 -143 -12
-75 7 -105 23 -105 59 0 38 21 45 54 20z m5126 0 c11 -13 10 -21 -7 -43 -17
-23 -30 -28 -94 -35 -128 -14 -141 -13 -153 6 -9 14 -8 20 4 27 8 5 21 8 28 5
7 -3 11 -1 8 4 -6 10 51 21 110 21 25 0 47 6 54 15 16 19 34 19 50 0z m-5440
-175 c49 -49 -10 -122 -64 -79 -32 25 -34 63 -4 83 30 21 44 20 68 -4z m5758
4 c24 -17 30 -65 10 -81 -29 -22 -48 -22 -74 1 -22 18 -26 28 -20 50 4 15 17
31 29 36 30 12 30 12 55 -6z m-274 -20 c25 -10 19 -28 -23 -75 -34 -38 -40
-42 -55 -30 -23 19 -20 31 15 74 32 38 37 41 63 31z m-5205 -30 c28 -35 27
-71 -1 -80 -17 -5 -27 0 -45 22 -31 39 -38 65 -22 75 25 15 47 10 68 -17z
m701 -289 l245 -245 108 0 c60 0 107 4 107 9 0 6 -34 40 -75 78 -85 77 -95
106 -49 148 34 32 75 32 110 1 22 -19 28 -31 27 -62 -2 -38 4 -45 284 -325
306 -307 311 -315 251 -349 l-28 -15 -212 213 -213 212 -179 0 -179 0 -259
257 c-184 183 -258 264 -258 280 0 26 34 53 58 46 9 -2 127 -114 262 -248z
m4046 221 c9 -15 12 -30 7 -38 -4 -7 -123 -127 -263 -265 l-256 -253 -180 0
-180 0 -208 -210 c-115 -115 -213 -210 -219 -210 -14 0 -57 41 -57 54 0 6 128
139 285 296 l285 285 0 44 c0 84 75 121 134 66 47 -43 37 -73 -51 -159 l-78
-76 115 0 115 0 245 245 c257 258 274 269 306 221z m-3179 -27 c102 -38 132
-160 58 -234 -46 -45 -100 -54 -159 -25 -50 24 -75 56 -83 105 -17 102 88 191
184 154z m2122 -16 c45 -35 66 -71 65 -118 -1 -59 -34 -109 -86 -130 -101 -40
-198 27 -198 139 0 78 74 141 154 132 22 -3 51 -13 65 -23z m-4051 -26 c28
-42 28 -62 -3 -92 -32 -33 -68 -32 -94 1 -27 34 -27 72 1 101 32 34 68 30 96
-10z m192 18 c18 -10 62 -14 165 -15 l140 0 354 -355 354 -355 189 0 190 0
219 -217 c121 -120 232 -224 247 -231 36 -19 52 -40 52 -72 0 -35 -32 -63 -71
-62 -35 1 -56 15 -65 45 -3 12 -99 115 -212 230 l-207 207 -393 0 -394 0 -127
125 -128 125 -105 0 -106 0 -20 -33 c-57 -98 -223 -90 -281 13 -19 34 -23 52
-19 101 6 85 55 143 130 155 85 14 155 -24 190 -103 l19 -43 123 0 123 0 124
-120 124 -120 130 0 130 0 -305 305 -305 305 -114 0 c-94 0 -118 -3 -133 -17
-11 -9 -35 -17 -55 -17 -81 0 -104 117 -29 150 38 16 36 16 66 -1z m5557 -11
c50 -32 32 -126 -27 -139 -22 -5 -39 -1 -64 14 -29 18 -50 21 -147 21 l-114 0
-297 -302 c-164 -167 -297 -304 -298 -305 0 -2 59 -3 131 -3 l132 0 117 120
117 120 131 0 130 0 7 27 c10 42 43 82 85 103 99 50 211 -2 241 -112 29 -108
-51 -213 -161 -211 -57 1 -101 22 -137 68 l-28 35 -110 0 -110 0 -121 -125
-121 -125 -395 0 -395 0 -201 -202 c-110 -112 -211 -219 -224 -238 -20 -29
-30 -35 -65 -38 -38 -3 -43 0 -58 28 -21 42 -5 87 34 96 16 4 114 93 252 230
l227 224 189 0 190 0 349 351 350 351 136 4 c94 3 144 8 164 19 30 15 54 13
91 -11z m207 1 c33 -30 34 -68 1 -100 -32 -33 -68 -32 -94 1 -28 35 -26 69 4
99 31 32 55 32 89 0z m-3745 -239 c15 -18 1 -50 -29 -66 -15 -8 -24 -6 -40 10
-11 11 -20 27 -20 35 0 8 9 24 20 35 22 22 43 17 69 -14z m1517 -13 c6 -20 2
-31 -16 -45 -20 -16 -25 -17 -44 -5 -30 20 -33 61 -5 81 28 19 56 6 65 -31z
m254 -145 c25 -27 25 -43 0 -68 -24 -24 -53 -26 -74 -4 -22 21 -20 50 4 74 26
26 44 25 70 -2z m-4134 -13 c12 -18 11 -24 -2 -43 -21 -30 -58 -29 -72 4 -26
55 41 90 74 39z m2096 8 c25 -23 23 -48 -8 -72 -30 -24 -58 -15 -76 23 -23 52
40 89 84 49z m4149 -4 c17 -33 -4 -71 -38 -67 -33 4 -48 27 -39 61 5 22 12 27
36 27 20 0 33 -7 41 -21z m-2751 -104 l0 -35 -420 0 -420 0 0 35 0 35 420 0
420 0 0 -35z m-1128 -11 c15 -33 1 -58 -35 -62 -34 -4 -55 34 -38 67 17 30 58
28 73 -5z m1216 -116 c7 -7 12 -22 12 -35 l0 -23 -520 0 -520 0 0 23 c0 13 5
28 12 35 17 17 999 17 1016 0z m-3657 -177 c35 -35 38 -77 8 -115 -29 -37 -90
-37 -124 0 -78 84 35 195 116 115z m3763 -2 c48 -57 21 -139 -54 -159 -27 -7
-212 -10 -578 -8 -600 3 -578 1 -602 73 -14 42 -7 78 20 105 19 19 36 20 604
20 l584 0 26 -31z m2669 6 c56 -53 20 -145 -58 -145 -62 0 -107 67 -80 120 29
56 92 67 138 25z m-200 -27 c23 -27 22 -63 -4 -89 -17 -17 -28 -20 -57 -14
-21 4 -107 9 -192 12 l-155 4 -65 -60 -65 -61 -385 0 -386 0 -40 -42 c-21 -24
-52 -57 -67 -74 l-27 -31 21 -48 c73 -165 -94 -338 -257 -266 -60 27 -81 45
-107 96 -78 151 75 335 234 281 l47 -16 63 65 c102 104 61 96 471 95 l361 0
82 80 83 80 168 1 c93 0 178 4 189 9 28 13 67 3 88 -22z m-5849 12 l148 0 82
-80 82 -80 365 0 364 0 84 -79 83 -79 39 16 c33 13 48 13 91 3 68 -15 110 -49
142 -113 32 -65 33 -108 2 -175 -72 -153 -296 -146 -367 12 -25 55 -24 112 5
168 l23 47 -70 70 -69 70 -387 0 -387 0 -59 60 -60 61 -150 -4 c-82 -3 -167
-8 -188 -12 -50 -10 -77 13 -77 65 0 54 14 63 90 56 36 -3 132 -6 214 -6z
m5784 -182 c16 -16 15 -55 0 -65 -7 -4 -55 -6 -107 -4 l-93 3 -132 -131 -133
-131 -301 0 c-166 0 -302 -3 -302 -6 0 -11 23 -50 43 -71 20 -23 21 -23 350
-23 l330 0 53 43 c37 29 57 53 64 78 18 65 58 76 82 24 11 -25 7 -30 -77 -115
l-90 -90 -398 0 -399 0 -34 34 c-35 35 -35 36 -31 108 6 85 12 105 39 119 12
6 140 9 356 8 l337 -2 112 106 112 107 78 1 c43 0 87 4 98 9 27 12 29 12 43
-2z m-5852 -8 l63 0 118 -112 c65 -62 124 -122 131 -133 13 -20 13 -20 7 1 -5
18 0 22 32 28 21 3 165 6 319 6 263 0 283 -1 305 -19 18 -14 24 -30 26 -63 1
-23 4 -61 8 -84 7 -37 5 -42 -29 -72 l-37 -32 -399 0 -400 0 -42 47 c-24 26
-60 63 -80 82 -41 37 -50 78 -22 102 21 17 46 1 59 -38 6 -17 33 -54 60 -82
l50 -50 336 -1 336 0 19 23 c11 12 28 34 37 50 l17 27 -305 0 -305 0 -133 130
-132 130 -102 0 c-94 0 -102 2 -108 20 -11 36 13 53 64 46 24 -3 72 -6 107 -6z
m3131 -98 c9 -6 16 -70 23 -213 10 -220 19 -301 50 -479 39 -219 114 -468 181
-602 11 -21 19 -42 19 -48 0 -7 -182 -10 -570 -10 -313 0 -570 2 -570 5 0 3
17 40 39 83 92 182 182 542 201 802 6 80 13 172 16 205 l5 61 92 23 c52 13
155 53 237 91 182 86 243 104 277 82z m-3330 -75 c56 -39 78 -81 78 -152 0
-106 -67 -177 -168 -178 -98 -1 -174 63 -185 158 -17 155 149 259 275 172z
m6284 -1 c55 -37 83 -99 77 -173 -13 -155 -204 -215 -307 -97 -78 88 -55 220
48 278 59 34 122 31 182 -8z m-3943 -259 c17 -13 15 -44 -4 -51 -9 -3 -105 -6
-214 -6 -174 0 -199 2 -204 16 -4 9 -4 25 -1 35 6 18 19 19 208 17 111 -1 208
-6 215 -11z m1815 -8 c6 -9 7 -24 4 -33 -6 -14 -30 -16 -206 -16 -110 0 -206
3 -215 6 -21 8 -20 41 2 53 10 6 94 9 211 8 166 -2 195 -4 204 -18z m-1859
-209 c41 -39 39 -94 -3 -132 -40 -36 -72 -35 -114 2 l-35 30 -690 0 -690 0
-90 -90 -91 -90 -233 0 c-183 -1 -238 -4 -258 -15 -37 -21 -68 -18 -95 10 -31
30 -32 73 -4 109 23 29 72 35 98 12 12 -10 68 -15 231 -19 l215 -5 96 94 96
94 716 0 c498 0 718 3 722 11 22 35 86 30 129 -11z m1610 15 c17 -13 121 -15
731 -15 l712 0 44 -44 c24 -24 71 -67 103 -96 l60 -53 205 7 c156 5 210 10
228 21 36 24 78 19 102 -11 28 -36 27 -79 -4 -109 -27 -28 -58 -31 -95 -10
-20 11 -75 14 -260 15 l-235 0 -90 90 -90 90 -691 0 c-631 0 -693 -1 -705 -17
-23 -27 -75 -44 -102 -34 -42 16 -70 61 -63 101 10 67 98 105 150 65z m-3708
-34 c160 1 296 -1 302 -5 14 -8 15 -26 4 -43 -11 -17 -668 -21 -684 -5 -15 15
-1 60 20 64 9 3 28 0 42 -5 14 -4 156 -7 316 -6z m6071 -19 c3 -13 1 -28 -5
-34 -11 -11 -666 -13 -683 -2 -9 5 -13 47 -5 55 2 2 158 4 346 4 l341 0 6 -23z
m-6396 -132 c10 -6 26 -24 34 -40 14 -26 14 -34 1 -64 -26 -62 -80 -73 -127
-27 -44 45 -38 100 16 129 25 14 51 15 76 2z m6430 -19 c40 -40 39 -81 -2
-115 -17 -14 -40 -26 -52 -26 -39 1 -87 54 -87 95 0 26 55 75 85 75 16 0 38
-12 56 -29z m-3996 -68 c32 -44 41 -43 -724 -43 l-726 0 -93 -91 c-50 -50 -92
-94 -92 -98 0 -18 -51 -61 -71 -61 -30 0 -69 38 -69 66 0 38 32 67 75 68 33 1
48 11 129 88 l91 87 734 1 c681 0 735 -1 746 -17z m3039 -70 c86 -77 101 -87
130 -85 26 3 38 -2 55 -24 27 -35 27 -59 -4 -89 -35 -36 -71 -33 -95 8 -23 39
-17 33 -120 132 l-83 80 -734 3 c-640 2 -735 4 -740 17 -3 9 0 22 7 30 11 13
109 15 750 15 l737 0 97 -87z m-3044 -108 c10 -12 10 -18 0 -30 -10 -12 -44
-15 -185 -15 -141 0 -175 -3 -185 -15 -18 -21 -47 -19 -61 6 -9 17 -7 25 12
45 22 24 25 24 215 24 158 0 194 -3 204 -15z m1890 -10 c19 -20 22 -30 14 -43
-15 -23 -48 -27 -64 -7 -10 12 -41 15 -179 15 -127 0 -172 3 -186 14 -16 12
-17 16 -6 30 12 14 41 16 205 16 l193 0 23 -25z m-3894 -44 c60 -27 87 -72 92
-148 l4 -63 164 0 164 0 110 110 111 110 281 0 c264 0 283 -1 313 -20 31 -19
55 -62 55 -97 0 -29 -31 -79 -59 -96 -23 -13 -53 -17 -138 -17 l-109 0 -149
-150 -149 -150 -156 0 -156 0 -88 -90 -89 -90 -86 0 c-60 -1 -92 -5 -105 -15
-26 -19 -66 -19 -94 1 -29 20 -31 85 -2 114 21 21 60 26 89 11 9 -5 45 -13 79
-17 l62 -7 98 97 98 96 154 0 154 0 146 145 147 145 120 0 c89 0 123 4 132 13
6 8 8 17 4 20 -3 4 -122 7 -263 7 l-256 0 -104 -105 c-59 -61 -112 -106 -124
-107 -12 0 -106 0 -211 1 -147 2 -203 -1 -249 -13 -65 -17 -94 -14 -145 17
-32 19 -81 102 -81 137 0 34 22 91 47 121 50 59 117 73 189 40z m5624 -3 c77
-39 112 -116 90 -198 -24 -89 -115 -143 -202 -118 -30 8 -111 11 -264 9 l-221
-3 -115 111 -116 111 -257 0 c-239 0 -256 -1 -253 -17 3 -16 20 -19 136 -23
l132 -5 143 -142 142 -143 154 0 154 0 91 -90 92 -90 67 0 c36 0 69 5 72 10 3
6 22 10 42 10 73 0 109 -76 61 -127 -25 -27 -79 -31 -98 -8 -9 11 -34 15 -99
15 l-87 0 -96 90 -96 90 -149 0 -149 0 -152 150 -151 150 -117 0 -116 0 -34
34 c-29 29 -34 41 -34 80 0 36 6 52 29 78 l29 33 294 3 293 2 113 -110 112
-110 164 0 164 0 4 65 c3 44 10 74 24 92 24 33 98 73 134 73 14 0 46 -10 70
-22z m-3735 -87 c48 -6 50 -7 50 -36 0 -29 -1 -30 -50 -29 l-50 1 -263 -264
-262 -263 -158 0 -158 0 -224 -225 -225 -225 0 -52 c0 -91 -54 -156 -138 -165
-61 -7 -120 25 -147 82 -34 70 -21 133 38 189 36 33 113 47 152 26 21 -11 36
2 264 229 l242 241 158 0 157 0 245 243 c135 133 255 247 267 254 12 7 29 10
37 6 8 -3 38 -9 65 -12z m2070 -242 l250 -249 159 0 159 0 240 -239 c199 -198
244 -238 258 -230 10 5 36 9 59 9 75 0 131 -45 151 -121 11 -40 10 -53 -5 -93
-22 -59 -64 -88 -130 -94 -41 -3 -57 1 -85 20 -58 39 -76 72 -76 139 l0 59
-195 196 c-271 273 -240 254 -424 254 l-151 0 -260 260 -259 259 -55 3 c-55 3
-56 4 -59 36 l-3 32 53 0 c29 0 60 5 68 10 8 5 24 7 35 4 11 -3 133 -118 270
-255z m-4287 86 c15 -32 6 -54 -24 -61 -30 -8 -54 11 -54 40 0 48 59 64 78 21z
m6213 4 c16 -30 -3 -69 -34 -69 -44 0 -62 43 -31 74 22 22 51 20 65 -5z
m-2367 -190 c29 -23 36 -78 12 -98 -10 -8 -226 -10 -797 -9 l-784 3 -13 28
c-12 24 -11 31 3 53 9 14 26 29 38 34 12 5 358 9 768 9 740 1 747 1 773 -20z
m-3735 -139 c10 -5 24 -22 30 -39 15 -34 4 -62 -33 -86 -47 -31 -104 17 -92
78 10 48 53 70 95 47z m5996 -15 c30 -30 31 -54 4 -89 -40 -51 -119 -25 -119
40 0 66 69 96 115 49z m-2215 -108 c19 -28 61 -72 94 -97 138 -107 162 -128
193 -169 41 -53 67 -137 57 -186 -8 -45 -42 -96 -74 -112 -20 -10 -253 -12
-1102 -10 l-1076 2 -27 25 c-59 54 -71 141 -31 225 33 71 66 107 174 188 53
39 115 97 140 129 l45 58 786 0 786 -1 35 -52z m-3081 12 c12 -20 7 -28 -80
-115 l-92 -93 -79 1 c-59 0 -83 -4 -97 -16 -9 -9 -31 -19 -49 -22 -26 -5 -36
-1 -62 24 -33 33 -36 48 -19 85 11 25 47 47 74 47 8 0 30 -13 48 -30 31 -27
42 -30 99 -30 l65 0 79 84 c43 46 84 85 89 85 6 1 16 -9 24 -20z m4629 -62
l77 -76 63 -2 c51 -2 66 1 85 18 12 12 39 24 59 28 31 6 41 3 62 -19 70 -69
-15 -167 -101 -116 -26 15 -52 20 -110 20 l-75 0 -74 72 c-41 40 -78 75 -82
78 -4 3 -13 13 -20 22 -16 21 0 57 23 54 9 -1 51 -37 93 -79z m-5200 -63 c39
-27 22 -94 -25 -94 -54 0 -81 54 -46 92 20 22 42 23 71 2z m5735 -15 c15 -22
17 -30 8 -48 -23 -42 -92 -36 -106 10 -9 26 31 71 59 67 10 -2 28 -15 39 -29z
m-4403 -29 c12 -17 20 -34 18 -39 -2 -6 -116 -124 -253 -263 -138 -139 -263
-270 -279 -290 -16 -21 -34 -38 -41 -38 -6 0 -23 -17 -36 -37 -15 -25 -33 -39
-49 -41 -31 -4 -70 30 -70 60 0 23 36 68 54 68 6 0 148 137 316 305 168 168
308 305 312 305 4 0 16 -14 28 -30z m3330 -266 c162 -163 312 -307 332 -320
51 -33 60 -70 24 -101 -41 -35 -50 -33 -108 33 -9 10 -23 24 -30 30 -51 44
-578 585 -578 594 0 20 32 60 49 60 9 0 149 -133 311 -296z m-4508 109 c26
-23 23 -59 -6 -78 -28 -19 -58 -9 -76 25 -26 48 40 91 82 53z m5420 0 c25 -23
23 -48 -8 -72 -27 -21 -50 -18 -71 8 -19 24 -15 48 9 65 29 20 47 20 70 -1z
m-4186 -209 c76 -36 107 -141 65 -221 -23 -45 -85 -83 -137 -83 -49 1 -109 34
-134 76 -84 135 62 296 206 228z m3035 -7 c103 -69 106 -197 8 -270 -102 -75
-261 24 -245 152 15 114 146 180 237 118z m-443 -190 c42 -45 48 -114 15 -179
-30 -61 31 -58 -1165 -58 -1052 0 -1094 1 -1124 19 -69 42 -84 154 -28 212
l28 29 1126 0 1127 0 21 -23z m-2971 -109 c13 -12 23 -26 23 -32 0 -6 13 -19
29 -28 20 -11 33 -29 40 -56 9 -31 19 -43 43 -53 35 -14 81 -54 245 -209 94
-89 107 -98 160 -109 32 -7 67 -17 79 -22 17 -9 28 -5 59 15 44 30 66 32 106
9 21 -13 33 -31 44 -69 11 -39 21 -53 37 -58 30 -7 132 -111 124 -125 -16 -25
-43 -12 -149 72 -33 26 -37 27 -80 15 -39 -10 -48 -9 -72 6 -15 10 -32 30 -38
45 -9 24 -19 29 -96 45 -47 10 -96 25 -109 33 -13 8 -97 84 -188 168 l-165
155 -40 -21 c-35 -17 -45 -18 -75 -9 -47 16 -68 50 -60 97 9 50 9 63 0 96 -13
54 39 76 83 35z m3715 5 c21 -18 23 -44 6 -61 -9 -9 -9 -18 0 -37 31 -67 -6
-135 -73 -135 -20 0 -48 6 -64 14 -27 14 -28 14 -149 -97 -229 -210 -246 -222
-307 -237 -31 -7 -72 -14 -91 -14 -24 -1 -34 -6 -34 -17 0 -28 -40 -68 -74
-75 -22 -4 -44 0 -66 11 -18 9 -29 12 -26 6 4 -5 -4 -15 -16 -22 -12 -7 -29
-18 -36 -26 -7 -7 -34 -27 -59 -44 -42 -29 -46 -30 -61 -14 -16 16 -12 21 58
86 41 38 80 67 87 65 9 -4 13 6 13 33 0 40 26 73 67 85 25 8 92 -19 100 -40 4
-11 9 -11 26 1 11 8 46 17 78 21 62 7 73 16 294 223 92 87 133 115 148 103 9
-8 12 -1 14 31 1 31 8 47 35 72 18 18 41 44 51 59 20 30 52 34 79 9z m-3868
-172 c24 -26 17 -62 -16 -80 -24 -14 -28 -14 -47 3 -25 23 -27 58 -5 80 21 21
47 20 68 -3z m4014 3 c29 -20 28 -45 -3 -74 -21 -20 -29 -22 -49 -12 -33 15
-41 45 -20 77 19 29 40 32 72 9z m-2529 -309 c44 -22 78 -70 86 -117 4 -24 17
-63 28 -86 21 -42 21 -44 3 -57 -38 -28 -85 17 -86 81 0 59 -16 98 -49 117
-55 33 -127 15 -144 -36 -15 -45 -2 -72 43 -92 44 -20 60 -40 60 -76 0 -19 -4
-21 -40 -16 -134 18 -178 197 -67 275 38 26 122 30 166 7z m1142 -8 c48 -31
71 -81 65 -135 -10 -79 -45 -122 -115 -142 -27 -8 -33 -6 -47 16 -15 22 -15
26 -1 48 9 13 32 29 52 36 62 20 72 66 24 111 -43 41 -99 40 -140 0 -24 -25
-29 -37 -29 -81 0 -43 -21 -110 -34 -110 -3 0 -11 -3 -19 -6 -8 -3 -21 2 -30
10 -14 14 -14 20 3 63 11 27 22 64 25 84 16 107 155 167 246 106z m-596 -32
c62 -13 135 -113 135 -185 0 -96 -94 -190 -190 -190 -65 0 -152 58 -176 117
-18 41 -18 115 0 156 16 40 77 95 114 103 15 3 32 7 37 9 10 3 29 0 80 -10z"/>
<path d="M3380 7771 c-14 -27 -3 -50 28 -58 34 -8 67 29 52 58 -14 26 -66 26
-80 0z"/>
<path d="M6766 7784 c-30 -30 -13 -74 29 -74 46 0 60 48 23 74 -28 20 -33 20
-52 0z"/>
<path d="M2724 7176 c-9 -39 2 -58 32 -54 57 7 57 69 1 76 -21 3 -28 -2 -33
-22z"/>
<path d="M7433 7194 c-7 -3 -13 -19 -13 -35 0 -22 6 -30 25 -35 33 -8 57 12
53 45 -2 20 -9 26 -28 28 -14 1 -31 -1 -37 -3z"/>
<path d="M2292 6043 c-23 -9 -33 -41 -20 -63 22 -35 88 -21 88 20 0 31 -37 55
-68 43z"/>
<path d="M7880 6030 c-26 -26 -25 -45 1 -64 38 -26 96 14 73 51 -18 29 -52 35
-74 13z"/>
<path d="M6564 5220 c-43 -16 -32 -80 16 -93 23 -6 60 23 60 46 0 34 -42 59
-76 47z"/>
<path d="M3601 5213 c-23 -16 -28 -52 -9 -71 21 -21 67 -15 79 12 22 47 -28
89 -70 59z"/>
<path d="M1926 5184 c-20 -51 17 -88 60 -59 42 27 25 75 -27 75 -15 0 -29 -7
-33 -16z"/>
<path d="M8221 5178 c-17 -46 28 -79 68 -51 40 27 20 73 -31 73 -21 0 -31 -6
-37 -22z"/>
<path d="M2260 4211 c-20 -38 21 -82 59 -62 44 24 31 81 -19 81 -19 0 -33 -7
-40 -19z"/>
<path d="M7881 4208 c-17 -47 24 -80 65 -53 43 28 25 75 -28 75 -21 0 -31 -6
-37 -22z"/>
<path d="M2728 3165 c-10 -22 -9 -29 9 -46 17 -18 24 -19 42 -9 17 9 21 19 19
43 -2 27 -8 33 -30 35 -22 3 -30 -2 -40 -23z"/>
<path d="M7423 3164 c-16 -26 -16 -27 6 -45 28 -23 35 -23 55 -3 19 18 21 45
4 62 -20 20 -46 14 -65 -14z"/>
</g>
</svg>
